######## ######## ######## ##          ######## ########  ######## ######## 
##       ##       ##       ##          ##       ##     ## ##       ##       
##       ##       ##       ##          ##       ##     ## ##       ##       
######   ######   ######   ##          ######   ########  ######   ######   
##       ##       ##       ##          ##       ##   ##   ##       ##       
##       ##       ##       ##          ##       ##    ##  ##       ##       
##       ######## ######## ########    ##       ##     ## ######## ######## 

Genre:Action | Mystery | Romance 
Language:English
IMDb: 
http://www.imdb.com/title/tt0945513/
Source:ELEKT4IKA/LKRG.Thanks!


Format : AVI
Format/Info : Audio Video Interleave
File size : 676 MiB
Duration : 1h 26mn
Overall bit rate : 1 097 Kbps


Video
ID : 0
Format : MPEG-4 Visual
Format profile : Advanced Simple@L5
Format settings, BVOP : Yes
Format settings, QPel : No
Format settings, GMC : No warppoints
Format settings, Matrix : Default (H.263)
Muxing mode : Packed bitstream
Codec ID : XVID
Codec ID/Hint : XviD
Duration : 1h 26mn
Bit rate : 959 Kbps
Width : 652 pixels
Height : 352 pixels
Display aspect ratio : 1.852
Frame rate : 25.000 fps
Color space : YUV
Chroma subsampling : 4:2:0
Bit depth : 8 bits
Scan type : Progressive
Bits/(Pixel*Frame) : 0.167
Stream size : 591 MiB (87%)
Writing library : XviD 1.2.1 (UTC 2008-12-04)

Audio
ID : 1
Format : MPEG Audio
Format version : Version 1
Format profile : Layer 3
Codec ID : 55
Codec ID/Hint : MP3
Duration : 1h 26mn
Bit rate mode : Constant
Bit rate : 128 Kbps
Channel(s) : 2 channels
Sampling rate : 44.1 KHz
Video delay : 11ms
Stream size : 78.8 MiB (12%)
Alignment : Split accross interleaves
Interleave, duration : 40 ms (1.00 video frame)
Interleave, preload duration : 500 ms


Plot:
An action thriller centered on a soldier who wakes up in the body of an unknown man and discovers he's part of a mission to find the bomber of a Chicago commuter train.



Greets:

INK,CRYS,IMAGINE,LKRG,FXG,3Li,FLAWL3SS,TA,iLLUSiON,ViSiON,DTRG SAFCuk009,LU,TheFalcon007,MYSTiC,PrisM,Noir,WBZ,LAP,Rx,Kingdom,SAFCuk009+Fabreezy,HDLiTE,TWiZTED,ExtraTorrentRG.ELEKTRI4KA,MAGNAT,CM8
And to all the other p2p grps past and present





================================== 
http://thepiratebay.org/user/hiest
==================================





Screenshots:
 
http://www.pix2links.com/images/65515344372851016004.png
 
http://www.pix2links.com/images/16352998659805593575.png
 
http://www.pix2links.com/images/87685628710167977010.png
 
http://www.pix2links.com/images/62270869939194499278.png


######## ######## ######## ##          ######## ########  ######## ######## 
##       ##       ##       ##          ##       ##     ## ##       ##       
##       ##       ##       ##          ##       ##     ## ##       ##       
######   ######   ######   ##          ######   ########  ######   ######   
##       ##       ##       ##          ##       ##   ##   ##       ##       
##       ##       ##       ##          ##       ##    ##  ##       ##       
##       ######## ######## ########    ##       ##     ## ######## ######## 